<mxfile host="app.diagrams.net" modified="2024-05-21T19:33:06.253Z" agent="Mozilla/5.0 (Windows NT 10.0; Win64; x64; rv:109.0) Gecko/20100101 Firefox/115.0" etag="-QXvAM8EGXc5_40HLlcz" version="24.4.4" type="github">
  <diagram name="Page-1" id="90a13364-a465-7bf4-72fc-28e22215d7a0">
    <mxGraphModel dx="1081" dy="543" grid="1" gridSize="10" guides="1" tooltips="1" connect="1" arrows="1" fold="1" page="1" pageScale="1.5" pageWidth="1169" pageHeight="826" background="none" math="0" shadow="0">
      <root>
        <mxCell id="0" style=";html=1;" />
        <mxCell id="1" style=";html=1;" parent="0" />
        <mxCell id="PSbmAlQU5YadSZT0BGco-13" style="edgeStyle=orthogonalEdgeStyle;rounded=0;orthogonalLoop=1;jettySize=auto;html=1;entryX=0;entryY=0.5;entryDx=0;entryDy=0;exitX=0.75;exitY=0;exitDx=0;exitDy=0;" parent="1" source="PSbmAlQU5YadSZT0BGco-1" target="PSbmAlQU5YadSZT0BGco-12" edge="1">
          <mxGeometry relative="1" as="geometry">
            <Array as="points">
              <mxPoint x="820" y="460" />
            </Array>
          </mxGeometry>
        </mxCell>
        <mxCell id="PSbmAlQU5YadSZT0BGco-15" value="&lt;p style=&quot;line-height: 90%;&quot;&gt;&lt;font style=&quot;font-size: 15px;&quot;&gt;UART&lt;/font&gt;&lt;/p&gt;" style="edgeLabel;html=1;align=center;verticalAlign=middle;resizable=0;points=[];" parent="PSbmAlQU5YadSZT0BGco-13" vertex="1" connectable="0">
          <mxGeometry x="-0.4798" y="-1" relative="1" as="geometry">
            <mxPoint y="29" as="offset" />
          </mxGeometry>
        </mxCell>
        <mxCell id="PSbmAlQU5YadSZT0BGco-1" value="&lt;font style=&quot;font-size: 20px;&quot;&gt;&lt;b&gt;STM32 Board&lt;/b&gt;&lt;br&gt;&lt;/font&gt;" style="rounded=1;whiteSpace=wrap;html=1;strokeWidth=2;fillColor=none;strokeColor=#23445d;" parent="1" vertex="1">
          <mxGeometry x="640" y="620" width="240" height="80" as="geometry" />
        </mxCell>
        <mxCell id="PSbmAlQU5YadSZT0BGco-3" style="edgeStyle=orthogonalEdgeStyle;rounded=0;orthogonalLoop=1;jettySize=auto;html=1;entryX=0.25;entryY=0;entryDx=0;entryDy=0;" parent="1" source="PSbmAlQU5YadSZT0BGco-2" target="PSbmAlQU5YadSZT0BGco-1" edge="1">
          <mxGeometry relative="1" as="geometry" />
        </mxCell>
        <mxCell id="PSbmAlQU5YadSZT0BGco-4" value="&lt;font style=&quot;font-size: 15px;&quot;&gt;&amp;nbsp;&amp;nbsp; UART&amp;nbsp;&amp;nbsp; &lt;br&gt;&lt;/font&gt;" style="edgeLabel;html=1;align=center;verticalAlign=middle;resizable=0;points=[];" parent="PSbmAlQU5YadSZT0BGco-3" vertex="1" connectable="0">
          <mxGeometry x="0.0389" y="2" relative="1" as="geometry">
            <mxPoint x="-16" y="2" as="offset" />
          </mxGeometry>
        </mxCell>
        <mxCell id="PSbmAlQU5YadSZT0BGco-2" value="&lt;div style=&quot;font-size: 15px;&quot;&gt;GPS Module&lt;/div&gt;" style="rounded=1;whiteSpace=wrap;html=1;fontSize=15;fillColor=#dae8fc;strokeColor=#6c8ebf;" parent="1" vertex="1">
          <mxGeometry x="390" y="530" width="130" height="60" as="geometry" />
        </mxCell>
        <mxCell id="PSbmAlQU5YadSZT0BGco-11" style="edgeStyle=orthogonalEdgeStyle;rounded=0;orthogonalLoop=1;jettySize=auto;html=1;entryX=0;entryY=0.5;entryDx=0;entryDy=0;" parent="1" source="PSbmAlQU5YadSZT0BGco-5" target="PSbmAlQU5YadSZT0BGco-1" edge="1">
          <mxGeometry relative="1" as="geometry" />
        </mxCell>
        <mxCell id="PSbmAlQU5YadSZT0BGco-5" value="Buck converter" style="rounded=1;whiteSpace=wrap;html=1;fontSize=15;fillColor=#d5e8d4;strokeColor=#82b366;" parent="1" vertex="1">
          <mxGeometry x="390" y="630" width="130" height="60" as="geometry" />
        </mxCell>
        <mxCell id="PSbmAlQU5YadSZT0BGco-7" value="" style="edgeStyle=orthogonalEdgeStyle;rounded=0;orthogonalLoop=1;jettySize=auto;html=1;" parent="1" source="PSbmAlQU5YadSZT0BGco-6" target="PSbmAlQU5YadSZT0BGco-5" edge="1">
          <mxGeometry relative="1" as="geometry" />
        </mxCell>
        <mxCell id="PSbmAlQU5YadSZT0BGco-6" value="&lt;div&gt;Battery&lt;/div&gt;" style="rounded=1;whiteSpace=wrap;html=1;fontSize=15;fillColor=#d5e8d4;strokeColor=#82b366;" parent="1" vertex="1">
          <mxGeometry x="390" y="730" width="130" height="60" as="geometry" />
        </mxCell>
        <mxCell id="PSbmAlQU5YadSZT0BGco-14" style="edgeStyle=orthogonalEdgeStyle;rounded=0;orthogonalLoop=1;jettySize=auto;html=1;" parent="1" source="PSbmAlQU5YadSZT0BGco-9" edge="1">
          <mxGeometry relative="1" as="geometry">
            <mxPoint x="820" y="460" as="targetPoint" />
          </mxGeometry>
        </mxCell>
        <mxCell id="PSbmAlQU5YadSZT0BGco-29" value="&lt;font style=&quot;font-size: 15px;&quot;&gt;&amp;nbsp;&amp;nbsp; External Interrupt&amp;nbsp;&amp;nbsp; &lt;br&gt;&lt;/font&gt;" style="edgeLabel;html=1;align=center;verticalAlign=middle;resizable=0;points=[];" parent="PSbmAlQU5YadSZT0BGco-14" vertex="1" connectable="0">
          <mxGeometry x="-0.0216" y="2" relative="1" as="geometry">
            <mxPoint x="3" y="2" as="offset" />
          </mxGeometry>
        </mxCell>
        <mxCell id="PSbmAlQU5YadSZT0BGco-9" value="Instant Warning&lt;br&gt;Button" style="rounded=1;whiteSpace=wrap;html=1;fontSize=15;fillColor=#f8cecc;strokeColor=#b85450;" parent="1" vertex="1">
          <mxGeometry x="390" y="430" width="130" height="60" as="geometry" />
        </mxCell>
        <mxCell id="PSbmAlQU5YadSZT0BGco-19" style="edgeStyle=orthogonalEdgeStyle;rounded=0;orthogonalLoop=1;jettySize=auto;html=1;entryX=0.5;entryY=0;entryDx=0;entryDy=0;" parent="1" source="PSbmAlQU5YadSZT0BGco-12" target="PSbmAlQU5YadSZT0BGco-16" edge="1">
          <mxGeometry relative="1" as="geometry" />
        </mxCell>
        <mxCell id="PSbmAlQU5YadSZT0BGco-22" value="&lt;p style=&quot;line-height: 80%; font-size: 15px;&quot;&gt;&lt;font style=&quot;font-size: 15px;&quot;&gt;HTTP&lt;/font&gt;&lt;/p&gt;" style="edgeLabel;html=1;align=center;verticalAlign=middle;resizable=0;points=[];" parent="PSbmAlQU5YadSZT0BGco-19" vertex="1" connectable="0">
          <mxGeometry x="-0.1409" relative="1" as="geometry">
            <mxPoint y="10" as="offset" />
          </mxGeometry>
        </mxCell>
        <mxCell id="PSbmAlQU5YadSZT0BGco-12" value="ESP32" style="rounded=1;whiteSpace=wrap;html=1;fontSize=15;fillColor=#bac8d3;strokeColor=#23445d;" parent="1" vertex="1">
          <mxGeometry x="1000" y="430" width="130" height="60" as="geometry" />
        </mxCell>
        <mxCell id="PSbmAlQU5YadSZT0BGco-20" style="edgeStyle=orthogonalEdgeStyle;rounded=0;orthogonalLoop=1;jettySize=auto;html=1;entryX=0.5;entryY=0;entryDx=0;entryDy=0;startArrow=classic;startFill=1;" parent="1" source="PSbmAlQU5YadSZT0BGco-16" target="PSbmAlQU5YadSZT0BGco-17" edge="1">
          <mxGeometry relative="1" as="geometry" />
        </mxCell>
        <mxCell id="PSbmAlQU5YadSZT0BGco-21" value="&lt;p style=&quot;line-height: 80%; font-size: 15px;&quot;&gt;&lt;font style=&quot;font-size: 15px;&quot;&gt;HTTP&lt;/font&gt;&lt;/p&gt;" style="edgeLabel;html=1;align=center;verticalAlign=middle;resizable=0;points=[];" parent="PSbmAlQU5YadSZT0BGco-20" vertex="1" connectable="0">
          <mxGeometry x="-0.1704" y="4" relative="1" as="geometry">
            <mxPoint x="-4" y="12" as="offset" />
          </mxGeometry>
        </mxCell>
        <mxCell id="PSbmAlQU5YadSZT0BGco-16" value="Server" style="rounded=1;whiteSpace=wrap;html=1;fontSize=15;fillColor=#bac8d3;strokeColor=#23445d;" parent="1" vertex="1">
          <mxGeometry x="1000" y="630" width="130" height="60" as="geometry" />
        </mxCell>
        <mxCell id="PSbmAlQU5YadSZT0BGco-17" value="Mobile app" style="rounded=1;whiteSpace=wrap;html=1;fontSize=15;fillColor=#bac8d3;strokeColor=#23445d;" parent="1" vertex="1">
          <mxGeometry x="1000" y="830" width="130" height="60" as="geometry" />
        </mxCell>
        <mxCell id="PSbmAlQU5YadSZT0BGco-27" style="edgeStyle=orthogonalEdgeStyle;rounded=0;orthogonalLoop=1;jettySize=auto;html=1;entryX=0;entryY=0.5;entryDx=0;entryDy=0;" parent="1" source="PSbmAlQU5YadSZT0BGco-18" target="PSbmAlQU5YadSZT0BGco-25" edge="1">
          <mxGeometry relative="1" as="geometry" />
        </mxCell>
        <mxCell id="PSbmAlQU5YadSZT0BGco-18" value="&lt;div&gt;Wake up&lt;/div&gt;&lt;div&gt;Button&lt;/div&gt;" style="rounded=1;whiteSpace=wrap;html=1;fontSize=15;fillColor=#f8cecc;strokeColor=#b85450;" parent="1" vertex="1">
          <mxGeometry x="570" y="830" width="130" height="60" as="geometry" />
        </mxCell>
        <mxCell id="PSbmAlQU5YadSZT0BGco-26" style="edgeStyle=orthogonalEdgeStyle;rounded=0;orthogonalLoop=1;jettySize=auto;html=1;entryX=0.726;entryY=0.992;entryDx=0;entryDy=0;endArrow=none;endFill=0;startArrow=classic;startFill=1;entryPerimeter=0;" parent="1" source="PSbmAlQU5YadSZT0BGco-25" target="PSbmAlQU5YadSZT0BGco-1" edge="1">
          <mxGeometry relative="1" as="geometry">
            <Array as="points" />
          </mxGeometry>
        </mxCell>
        <mxCell id="PSbmAlQU5YadSZT0BGco-28" value="&lt;p style=&quot;line-height: 80%;&quot;&gt;&lt;font style=&quot;font-size: 15px;&quot;&gt;I2C&lt;/font&gt;&lt;/p&gt;" style="edgeLabel;html=1;align=center;verticalAlign=middle;resizable=0;points=[];" parent="PSbmAlQU5YadSZT0BGco-26" vertex="1" connectable="0">
          <mxGeometry x="0.0179" y="1" relative="1" as="geometry">
            <mxPoint x="1" y="-4" as="offset" />
          </mxGeometry>
        </mxCell>
        <mxCell id="PSbmAlQU5YadSZT0BGco-25" value="Screen" style="rounded=1;whiteSpace=wrap;html=1;fontSize=15;fillColor=#e1d5e7;strokeColor=#9673a6;" parent="1" vertex="1">
          <mxGeometry x="750" y="830" width="130" height="60" as="geometry" />
        </mxCell>
        <mxCell id="bnGT1ezritJti-A0fDPi-2" value="" style="edgeStyle=orthogonalEdgeStyle;rounded=0;orthogonalLoop=1;jettySize=auto;html=1;" edge="1" parent="1" source="bnGT1ezritJti-A0fDPi-1" target="PSbmAlQU5YadSZT0BGco-6">
          <mxGeometry relative="1" as="geometry" />
        </mxCell>
        <mxCell id="bnGT1ezritJti-A0fDPi-1" value="&lt;div&gt;Charging&lt;/div&gt;&lt;div&gt;port&lt;br&gt;&lt;/div&gt;" style="rounded=1;whiteSpace=wrap;html=1;fontSize=15;fillColor=#d5e8d4;strokeColor=#82b366;" vertex="1" parent="1">
          <mxGeometry x="390" y="830" width="130" height="60" as="geometry" />
        </mxCell>
      </root>
    </mxGraphModel>
  </diagram>
</mxfile>
